<svg width="353" height="311" viewBox="0 0 353 311" fill="none" xmlns="http://www.w3.org/2000/svg">
<g clip-path="url(#clip0_2147_19)" filter="url(#filter0_f_2147_19)">
<path d="M52.1492 119.653L10.4008 167.741L45.142 167.785L59.0959 119.662L52.1492 119.653Z" fill="#F6F6F6"/>
<path d="M59.0959 119.662L72.9641 143.752L59.0089 191.873L45.142 167.785L59.0959 119.662Z" fill="#A2A2A2"/>
<path d="M10.4008 167.741L45.142 167.785L59.0089 191.873L24.2678 191.829L10.4008 167.741Z" fill="#5B6464"/>
<path d="M62.5498 167.84L76.3473 191.929L104.246 143.836L90.3864 119.736L62.5498 167.84Z" fill="#A2A2A2"/>
<path d="M111.239 119.761L125.103 143.843L97.246 191.956L83.3791 167.868L111.239 119.761Z" fill="#A2A2A2"/>
<path d="M69.4048 155.841L76.3331 156.017L86.6152 174.228L79.9061 174.083L69.4048 155.841Z" fill="#5B6464"/>
<path d="M76.4896 119.717L48.6389 167.821L62.5498 167.84L90.3863 119.736L76.4896 119.717Z" fill="#F6F6F6"/>
<path d="M97.2463 119.896L69.4823 167.849L83.3791 167.868L111.239 119.761L97.2463 119.896Z" fill="#F6F6F6"/>
<path d="M69.4823 167.849L83.3791 167.868L97.2461 191.956L83.2398 192.126L69.4823 167.849Z" fill="#5B6464"/>
<path d="M48.6389 167.821L62.5498 167.84L76.3472 191.929L62.507 191.911L48.6389 167.821Z" fill="#5B6464"/>
<path d="M69.515 131.771L104.224 131.816L90.1659 156.149L55.7265 155.822L69.515 131.771Z" fill="#F6F6F6"/>
<path d="M128.639 119.709L86.8913 167.794L121.632 167.841L135.588 119.717L128.639 119.709Z" fill="#F6F6F6"/>
<path d="M135.588 119.717L149.455 143.805L135.499 191.929L121.632 167.841L135.588 119.717Z" fill="#A2A2A2"/>
<path d="M86.8914 167.794L121.632 167.841L135.499 191.929L100.76 191.884L86.8914 167.794Z" fill="#5B6464"/>
<path d="M142.642 137.967L177.381 138.012L191.25 162.102L156.509 162.055L142.642 137.967Z" fill="#5B6464"/>
<path d="M125.174 168.136L159.977 168.077L173.844 192.165L139.021 192.261L125.174 168.136Z" fill="#5B6464"/>
<path d="M153.085 119.928L142.642 137.967L177.381 138.012L187.827 119.974L153.085 119.928Z" fill="#F6F6F6"/>
<path d="M135.68 149.994L125.174 168.136L159.977 168.078L170.419 150.039L135.68 149.994Z" fill="#F6F6F6"/>
<path d="M142.642 137.967L149.576 150.011L170.419 150.039L163.486 137.995L142.642 137.967Z" fill="#F6F6F6"/>
<path d="M177.381 138.012L191.25 162.102L201.694 144.062L187.827 119.974L177.381 138.012Z" fill="#A2A2A2"/>
<path d="M170.419 150.039L184.286 174.126L173.844 192.165L159.977 168.077L170.419 150.039Z" fill="#A2A2A2"/>
<path d="M208.655 119.949L180.861 168.054L166.956 168.037L194.817 119.93L208.655 119.949Z" fill="#F6F6F6"/>
<path d="M229.856 119.976L243.575 143.807L236.464 156.091L222.596 132.001L229.856 119.976Z" fill="#A2A2A2"/>
<path d="M201.753 131.978L215.618 156.064L212.136 162.077L198.25 137.958L201.753 131.978Z" fill="#A2A2A2"/>
<path d="M191.274 150.032L205.131 174.104L201.693 180.116L187.819 156.016L191.274 150.032Z" fill="#A2A2A2"/>
<path d="M201.753 131.978L215.618 156.064L236.464 156.091L222.596 132.001L201.753 131.978Z" fill="#5B6464"/>
<path d="M219.085 138.067L232.981 162.104L226.018 174.129L212.151 150.041L219.085 138.067Z" fill="#A2A2A2"/>
<path d="M191.274 150.032L212.151 150.041L226.018 174.129L205.131 174.103L191.274 150.032Z" fill="#5B6464"/>
<path d="M208.669 156.056L222.536 180.144L215.531 192.168L201.706 168.081L208.669 156.056Z" fill="#A2A2A2"/>
<path d="M166.956 168.037L201.706 168.081L215.531 192.168L180.843 192.105L166.956 168.037Z" fill="#5B6464"/>
<path d="M194.817 119.93L229.856 119.976L222.596 132.001L187.85 131.963L194.817 119.93Z" fill="#F6F6F6"/>
<path d="M184.372 137.97L219.085 138.067L212.151 150.041L177.401 149.997L184.372 137.97Z" fill="#F6F6F6"/>
<path d="M173.974 156.092L208.669 156.056L201.706 168.081L166.956 168.037L173.974 156.092Z" fill="#F6F6F6"/>
<path d="M250.602 119.884L222.808 167.989L208.903 167.971L236.764 119.865L250.602 119.884Z" fill="#F6F6F6"/>
<path d="M243.7 131.913L257.565 155.999L254.083 162.012L240.198 137.892L243.7 131.913Z" fill="#A2A2A2"/>
<path d="M233.221 149.967L247.078 174.038L243.64 180.051L229.766 155.95L233.221 149.967Z" fill="#A2A2A2"/>
<path d="M243.7 131.913L257.565 155.999L278.411 156.026L264.543 131.936L243.7 131.913Z" fill="#5B6464"/>
<path d="M233.221 149.967L254.098 149.976L267.966 174.066L247.078 174.038L233.221 149.967Z" fill="#5B6464"/>
<path d="M236.764 119.865L264.476 119.902L264.543 131.936L229.798 131.9L236.764 119.865Z" fill="#F6F6F6"/>
<path d="M226.319 137.905L261.032 138.001L254.098 149.976L219.348 149.931L226.319 137.905Z" fill="#F6F6F6"/>
<path d="M215.921 156.027L250.617 155.991L236.506 168.008L208.903 167.971L215.921 156.027Z" fill="#F6F6F6"/>
<path d="M208.903 167.971L222.7 191.937L250.475 192.006L236.506 168.008L208.903 167.971Z" fill="#5B6464"/>
<path d="M264.543 131.935L251.103 131.855L236.709 155.958L250.617 155.991L264.543 131.935Z" fill="#F6F6F6"/>
<path d="M236.506 168.008L250.617 155.991L264.624 179.886L250.475 192.006L236.506 168.008Z" fill="#A2A2A2"/>
<path d="M264.543 131.935L278.411 156.025L264.624 179.886L250.617 155.991L264.543 131.935Z" fill="#A2A2A2"/>
<path d="M264.476 119.902L278.309 143.931L278.411 156.026L264.543 131.936L264.476 119.902Z" fill="#A2A2A2"/>
<path d="M292.289 120.007L264.496 168.111L250.592 168.094L278.45 119.988L292.289 120.007Z" fill="#F6F6F6"/>
<path d="M313.489 120.034L327.209 143.865L320.098 156.149L306.229 132.059L313.489 120.034Z" fill="#A2A2A2"/>
<path d="M285.386 132.036L299.252 156.122L295.769 162.135L281.884 138.016L285.386 132.036Z" fill="#A2A2A2"/>
<path d="M274.908 150.09L288.765 174.162L285.327 180.174L271.452 156.074L274.908 150.09Z" fill="#A2A2A2"/>
<path d="M285.386 132.036L299.252 156.122L320.098 156.149L306.23 132.059L285.386 132.036Z" fill="#5B6464"/>
<path d="M302.718 138.125L316.615 162.162L309.653 174.189L295.785 150.099L302.718 138.125Z" fill="#A2A2A2"/>
<path d="M274.908 150.09L295.785 150.099L309.653 174.189L288.765 174.161L274.908 150.09Z" fill="#5B6464"/>
<path d="M292.303 156.114L306.17 180.202L299.164 192.226L285.34 168.139L292.303 156.114Z" fill="#A2A2A2"/>
<path d="M250.592 168.094L285.34 168.139L299.164 192.227L264.477 192.163L250.592 168.094Z" fill="#5B6464"/>
<path d="M278.45 119.988L313.489 120.034L306.229 132.059L271.484 132.023L278.45 119.988Z" fill="#F6F6F6"/>
<path d="M268.006 138.028L302.718 138.125L295.785 150.099L261.035 150.055L268.006 138.028Z" fill="#F6F6F6"/>
<path d="M257.61 156.149L292.303 156.114L285.34 168.139L250.592 168.094L257.61 156.149Z" fill="#F6F6F6"/>
</g>
<defs>
<filter id="filter0_f_2147_19" x="-4" y="-3.99998" width="360.861" height="318.989" filterUnits="userSpaceOnUse" color-interpolation-filters="sRGB">
<feFlood flood-opacity="0" result="BackgroundImageFix"/>
<feBlend mode="normal" in="SourceGraphic" in2="BackgroundImageFix" result="shape"/>
<feGaussianBlur stdDeviation="2" result="effect1_foregroundBlur_2147_19"/>
</filter>
<clipPath id="clip0_2147_19">
<rect width="300" height="186.135" fill="white" transform="translate(0 149.674) rotate(-29.9282)"/>
</clipPath>
</defs>
</svg>
